<svg width="64" height="64" viewBox="0 0 64 64" xmlns="http://www.w3.org/2000/svg">
  
  <!-- Leather vest silhouette -->
  <!-- Main vest body -->
  <path d="M 20 18 Q 20 12 32 12 Q 44 12 44 18 L 44 38 Q 44 42 40 44 L 32 46 L 24 44 Q 20 42 20 38 Z" fill="#8B4513" stroke="#654321" stroke-width="2"/>
  
  <!-- Collar -->
  <ellipse cx="32" cy="16" rx="8" ry="4" fill="#8B4513" stroke="#654321" stroke-width="1"/>
  
  <!-- Arm holes -->
  <ellipse cx="20" cy="22" rx="3" ry="6" fill="#f0f0f0" stroke="#654321" stroke-width="1"/>
  <ellipse cx="44" cy="22" rx="3" ry="6" fill="#f0f0f0" stroke="#654321" stroke-width="1"/>
  
  <!-- Front opening -->
  <rect x="30" y="18" width="4" height="20" fill="#f0f0f0" stroke="#654321" stroke-width="1"/>
  
  <!-- Leather texture details -->
  <line x1="24" y1="22" x2="40" y2="22" stroke="#654321" stroke-width="1"/>
  <line x1="26" y1="26" x2="38" y2="26" stroke="#654321" stroke-width="1"/>
  <line x1="24" y1="30" x2="40" y2="30" stroke="#654321" stroke-width="1"/>
  
  <!-- Buckles or clasps -->
  <circle cx="32" cy="20" r="2" fill="#D2691E" stroke="#8B4513" stroke-width="1"/>
  <circle cx="32" cy="36" r="2" fill="#D2691E" stroke="#8B4513" stroke-width="1"/>
</svg>