<svg width="64" height="64" viewBox="0 0 64 64" xmlns="http://www.w3.org/2000/svg">
  <!-- Background rectangle for inventory slot -->
  <rect width="64" height="64" fill="#f0f0f0" stroke="#000" stroke-width="1"/>
  
  <!-- Tribal tattoo kit -->
  <!-- Needle (tattoo tool) -->
  <line x1="32" y1="10" x2="32" y2="30" stroke="#000" stroke-width="2"/>
  <polygon points="30,10 34,10 32,6" fill="#808080" stroke="#000" stroke-width="1"/>
  <circle cx="32" cy="32" r="2" fill="#8B4513"/>
  
  <!-- Ink pot -->
  <ellipse cx="20" cy="45" rx="6" ry="4" fill="#8B4513" stroke="#654321" stroke-width="1"/>
  <rect x="16" y="40" width="8" height="10" rx="2" ry="2" fill="#8B4513" stroke="#654321" stroke-width="1"/>
  <circle cx="20" cy="42" r="3" fill="#000080" opacity="0.8"/>
  
  <!-- Pigment container -->
  <rect x="40" y="35" width="6" height="12" rx="1" ry="1" fill="#D2691E" stroke="#8B4513" stroke-width="1"/>
  <circle cx="43" cy="38" r="1.5" fill="#FF4500"/>
  <circle cx="43" cy="42" r="1.5" fill="#228B22"/>
  <circle cx="43" cy="46" r="1.5" fill="#0000FF"/>
  
  <!-- Tribal design elements -->
  <path d="M 15 20 Q 20 15 25 20 Q 20 25 15 20" fill="none" stroke="#8B4513" stroke-width="2"/>
  <path d="M 39 20 Q 44 15 49 20 Q 44 25 39 20" fill="none" stroke="#8B4513" stroke-width="2"/>
  <line x1="15" y1="25" x2="25" y2="25" stroke="#8B4513" stroke-width="1"/>
  <line x1="39" y1="25" x2="49" y2="25" stroke="#8B4513" stroke-width="1"/>
</svg>